<svg xmlns="http://www.w3.org/2000/svg" width="268" height="279" viewBox="0 0 268 279">
    <g fill="none" fill-rule="evenodd" opacity=".6">
        <g>
            <g>
                <g>
                    <g>
                        <g>
                            <g opacity=".5">
                                <g fill="#8F919D">
                                    <path d="M56.695 13.278c-.412-1.568-1.04-3.085-1.809-4.51-.748-1.387-1.63-2.755-2.755-3.87-.541-.536-1.141-.993-1.785-1.373-1.34-1.137-2.926-1.981-4.577-2.571-2.363-.846-4.95-1.186-7.432-.729-1.361.25-1.958-.978-3.842 3.35-1.884 4.33-.565 5.835-.565 8.281 0 2.447-.942 2.823-2.261 2.823-.866 0-11.104.365-30.716 1.094-.524.02-.94.451-.94.976 0 .53.412.967.94.999 21.222 1.3 31.838 1.972 31.846 2.013 1.13 5.645 4.9 9.033 7.537 9.033 2.638 0 6.28-1.384 8.103-1.882.907 1.802 1.884 3.576 2.826 5.458.942 1.882 7.726.188 7.16-2.07-.565-2.259-1.585-7.67-1.696-9.222 2.431-.12 2.18-.646 3.204-3.011 1.284-2.968 1.547-4.607-1.729-4.915-.522-.048-1.028-.001-1.51.126z" transform="translate(-1172 -186) translate(1164 184) translate(.717) translate(80 172) matrix(-1 0 0 1 70.095 2.258) translate(.175 15.056)"/>
                                </g>
                                <g fill="#170E35">
                                    <path d="M26.204 31.617c1.678-5.502 2.306-10.207 1.885-14.115-.421-3.908-1.49-9.742-3.204-17.502-6.909 3.638-12.373 6.775-16.393 9.41-4.02 2.635-6.72 5.52-8.102 8.657-.377 1.129.188 2.32 1.696 3.576 2.261 1.881 7.537 6.022 18.466 7.34 2.074.25 3.959 1.128 5.652 2.634z" transform="translate(-1172 -186) translate(1164 184) translate(.717) translate(80 172) matrix(-1 0 0 1 70.095 2.258) translate(34.469)"/>
                                </g>
                                <path fill="#8F919D" d="M57.15 26.746c-.496.158-.937.48-1.23.944-.347.551-.45 1.21-.441 1.858-.022.315.006.637.083.951.126.513-1.817 5.423-1.302 5.347.24-.036 1.573 2.072 4.545 1.209 2.972-.864 3.494-4.166 3.593-4.971.191-1.547-.003-3.22-1.044-4.459-.973-1.156-2.857-1.711-4.203-.879z" transform="translate(-1172 -186) translate(1164 184) translate(.717) translate(80 172) matrix(-1 0 0 1 70.095 2.258)"/>
                            </g>
                        </g>
                        <g>
                            <g opacity=".5">
                                <g fill="#8F919D">
                                    <path d="M56.695 13.278c-.412-1.568-1.04-3.085-1.809-4.51-.748-1.387-1.63-2.755-2.755-3.87-.541-.536-1.141-.993-1.785-1.373-1.34-1.137-2.926-1.981-4.577-2.571-2.363-.846-4.95-1.186-7.432-.729-1.361.25-1.958-.978-3.842 3.35-1.884 4.33-.565 5.835-.565 8.281 0 2.447-.942 2.823-2.261 2.823-.866 0-11.104.365-30.716 1.094-.524.02-.94.451-.94.976 0 .53.412.967.94.999 21.222 1.3 31.838 1.972 31.846 2.013 1.13 5.645 4.9 9.033 7.537 9.033 2.638 0 6.28-1.384 8.103-1.882.907 1.802 1.884 3.576 2.826 5.458.942 1.882 7.726.188 7.16-2.07-.565-2.259-1.585-7.67-1.696-9.222 2.431-.12 2.18-.646 3.204-3.011 1.284-2.968 1.547-4.607-1.729-4.915-.522-.048-1.028-.001-1.51.126z" transform="translate(-1172 -186) translate(1164 184) translate(.717) translate(0 172) matrix(-1 0 0 1 70.095 2.258) translate(.175 15.056)"/>
                                </g>
                                <g fill="#170E35">
                                    <path d="M26.204 31.617c1.678-5.502 2.306-10.207 1.885-14.115-.421-3.908-1.49-9.742-3.204-17.502-6.909 3.638-12.373 6.775-16.393 9.41-4.02 2.635-6.72 5.52-8.102 8.657-.377 1.129.188 2.32 1.696 3.576 2.261 1.881 7.537 6.022 18.466 7.34 2.074.25 3.959 1.128 5.652 2.634z" transform="translate(-1172 -186) translate(1164 184) translate(.717) translate(0 172) matrix(-1 0 0 1 70.095 2.258) translate(34.469)"/>
                                </g>
                                <path fill="#8F919D" d="M57.15 26.746c-.496.158-.937.48-1.23.944-.347.551-.45 1.21-.441 1.858-.022.315.006.637.083.951.126.513-1.817 5.423-1.302 5.347.24-.036 1.573 2.072 4.545 1.209 2.972-.864 3.494-4.166 3.593-4.971.191-1.547-.003-3.22-1.044-4.459-.973-1.156-2.857-1.711-4.203-.879z" transform="translate(-1172 -186) translate(1164 184) translate(.717) translate(0 172) matrix(-1 0 0 1 70.095 2.258)"/>
                            </g>
                        </g>
                        <g>
                            <g opacity=".5">
                                <g fill="#8F919D">
                                    <path d="M56.695 13.278c-.412-1.568-1.04-3.085-1.809-4.51-.748-1.387-1.63-2.755-2.755-3.87-.541-.536-1.141-.993-1.785-1.373-1.34-1.137-2.926-1.981-4.577-2.571-2.363-.846-4.95-1.186-7.432-.729-1.361.25-1.958-.978-3.842 3.35-1.884 4.33-.565 5.835-.565 8.281 0 2.447-.942 2.823-2.261 2.823-.866 0-11.104.365-30.716 1.094-.524.02-.94.451-.94.976 0 .53.412.967.94.999 21.222 1.3 31.838 1.972 31.846 2.013 1.13 5.645 4.9 9.033 7.537 9.033 2.638 0 6.28-1.384 8.103-1.882.907 1.802 1.884 3.576 2.826 5.458.942 1.882 7.726.188 7.16-2.07-.565-2.259-1.585-7.67-1.696-9.222 2.431-.12 2.18-.646 3.204-3.011 1.284-2.968 1.547-4.607-1.729-4.915-.522-.048-1.028-.001-1.51.126z" transform="translate(-1172 -186) translate(1164 184) translate(.717) translate(160 172) matrix(-1 0 0 1 70.095 2.258) translate(.175 15.056)"/>
                                </g>
                                <g fill="#170E35">
                                    <path d="M26.204 31.617c1.678-5.502 2.306-10.207 1.885-14.115-.421-3.908-1.49-9.742-3.204-17.502-6.909 3.638-12.373 6.775-16.393 9.41-4.02 2.635-6.72 5.52-8.102 8.657-.377 1.129.188 2.32 1.696 3.576 2.261 1.881 7.537 6.022 18.466 7.34 2.074.25 3.959 1.128 5.652 2.634z" transform="translate(-1172 -186) translate(1164 184) translate(.717) translate(160 172) matrix(-1 0 0 1 70.095 2.258) translate(34.469)"/>
                                </g>
                                <path fill="#8F919D" d="M57.15 26.746c-.496.158-.937.48-1.23.944-.347.551-.45 1.21-.441 1.858-.022.315.006.637.083.951.126.513-1.817 5.423-1.302 5.347.24-.036 1.573 2.072 4.545 1.209 2.972-.864 3.494-4.166 3.593-4.971.191-1.547-.003-3.22-1.044-4.459-.973-1.156-2.857-1.711-4.203-.879z" transform="translate(-1172 -186) translate(1164 184) translate(.717) translate(160 172) matrix(-1 0 0 1 70.095 2.258)"/>
                            </g>
                        </g>
                        <g>
                            <g opacity=".5">
                                <g fill="#8F919D">
                                    <path d="M56.695 13.278c-.412-1.568-1.04-3.085-1.809-4.51-.748-1.387-1.63-2.755-2.755-3.87-.541-.536-1.141-.993-1.785-1.373-1.34-1.137-2.926-1.981-4.577-2.571-2.363-.846-4.95-1.186-7.432-.729-1.361.25-1.958-.978-3.842 3.35-1.884 4.33-.565 5.835-.565 8.281 0 2.447-.942 2.823-2.261 2.823-.866 0-11.104.365-30.716 1.094-.524.02-.94.451-.94.976 0 .53.412.967.94.999 21.222 1.3 31.838 1.972 31.846 2.013 1.13 5.645 4.9 9.033 7.537 9.033 2.638 0 6.28-1.384 8.103-1.882.907 1.802 1.884 3.576 2.826 5.458.942 1.882 7.726.188 7.16-2.07-.565-2.259-1.585-7.67-1.696-9.222 2.431-.12 2.18-.646 3.204-3.011 1.284-2.968 1.547-4.607-1.729-4.915-.522-.048-1.028-.001-1.51.126z" transform="translate(-1172 -186) translate(1164 184) translate(.717) translate(240 172) matrix(-1 0 0 1 70.095 2.258) translate(.175 15.056)"/>
                                </g>
                                <g fill="#170E35">
                                    <path d="M26.204 31.617c1.678-5.502 2.306-10.207 1.885-14.115-.421-3.908-1.49-9.742-3.204-17.502-6.909 3.638-12.373 6.775-16.393 9.41-4.02 2.635-6.72 5.52-8.102 8.657-.377 1.129.188 2.32 1.696 3.576 2.261 1.881 7.537 6.022 18.466 7.34 2.074.25 3.959 1.128 5.652 2.634z" transform="translate(-1172 -186) translate(1164 184) translate(.717) translate(240 172) matrix(-1 0 0 1 70.095 2.258) translate(34.469)"/>
                                </g>
                                <path fill="#8F919D" d="M57.15 26.746c-.496.158-.937.48-1.23.944-.347.551-.45 1.21-.441 1.858-.022.315.006.637.083.951.126.513-1.817 5.423-1.302 5.347.24-.036 1.573 2.072 4.545 1.209 2.972-.864 3.494-4.166 3.593-4.971.191-1.547-.003-3.22-1.044-4.459-.973-1.156-2.857-1.711-4.203-.879z" transform="translate(-1172 -186) translate(1164 184) translate(.717) translate(240 172) matrix(-1 0 0 1 70.095 2.258)"/>
                            </g>
                        </g>
                        <g>
                            <g opacity=".5">
                                <g fill="#8F919D">
                                    <path d="M56.695 13.278c-.412-1.568-1.04-3.085-1.809-4.51-.748-1.387-1.63-2.755-2.755-3.87-.541-.536-1.141-.993-1.785-1.373-1.34-1.137-2.926-1.981-4.577-2.571-2.363-.846-4.95-1.186-7.432-.729-1.361.25-1.958-.978-3.842 3.35-1.884 4.33-.565 5.835-.565 8.281 0 2.447-.942 2.823-2.261 2.823-.866 0-11.104.365-30.716 1.094-.524.02-.94.451-.94.976 0 .53.412.967.94.999 21.222 1.3 31.838 1.972 31.846 2.013 1.13 5.645 4.9 9.033 7.537 9.033 2.638 0 6.28-1.384 8.103-1.882.907 1.802 1.884 3.576 2.826 5.458.942 1.882 7.726.188 7.16-2.07-.565-2.259-1.585-7.67-1.696-9.222 2.431-.12 2.18-.646 3.204-3.011 1.284-2.968 1.547-4.607-1.729-4.915-.522-.048-1.028-.001-1.51.126z" transform="translate(-1172 -186) translate(1164 184) translate(.717) translate(80 56) matrix(-1 0 0 1 70.095 2.258) translate(.175 15.056)"/>
                                </g>
                                <g fill="#170E35">
                                    <path d="M26.204 31.617c1.678-5.502 2.306-10.207 1.885-14.115-.421-3.908-1.49-9.742-3.204-17.502-6.909 3.638-12.373 6.775-16.393 9.41-4.02 2.635-6.72 5.52-8.102 8.657-.377 1.129.188 2.32 1.696 3.576 2.261 1.881 7.537 6.022 18.466 7.34 2.074.25 3.959 1.128 5.652 2.634z" transform="translate(-1172 -186) translate(1164 184) translate(.717) translate(80 56) matrix(-1 0 0 1 70.095 2.258) translate(34.469)"/>
                                </g>
                                <path fill="#8F919D" d="M57.15 26.746c-.496.158-.937.48-1.23.944-.347.551-.45 1.21-.441 1.858-.022.315.006.637.083.951.126.513-1.817 5.423-1.302 5.347.24-.036 1.573 2.072 4.545 1.209 2.972-.864 3.494-4.166 3.593-4.971.191-1.547-.003-3.22-1.044-4.459-.973-1.156-2.857-1.711-4.203-.879z" transform="translate(-1172 -186) translate(1164 184) translate(.717) translate(80 56) matrix(-1 0 0 1 70.095 2.258)"/>
                            </g>
                        </g>
                        <g>
                            <g opacity=".5">
                                <g fill="#8F919D">
                                    <path d="M56.695 13.278c-.412-1.568-1.04-3.085-1.809-4.51-.748-1.387-1.63-2.755-2.755-3.87-.541-.536-1.141-.993-1.785-1.373-1.34-1.137-2.926-1.981-4.577-2.571-2.363-.846-4.95-1.186-7.432-.729-1.361.25-1.958-.978-3.842 3.35-1.884 4.33-.565 5.835-.565 8.281 0 2.447-.942 2.823-2.261 2.823-.866 0-11.104.365-30.716 1.094-.524.02-.94.451-.94.976 0 .53.412.967.94.999 21.222 1.3 31.838 1.972 31.846 2.013 1.13 5.645 4.9 9.033 7.537 9.033 2.638 0 6.28-1.384 8.103-1.882.907 1.802 1.884 3.576 2.826 5.458.942 1.882 7.726.188 7.16-2.07-.565-2.259-1.585-7.67-1.696-9.222 2.431-.12 2.18-.646 3.204-3.011 1.284-2.968 1.547-4.607-1.729-4.915-.522-.048-1.028-.001-1.51.126z" transform="translate(-1172 -186) translate(1164 184) translate(.717) translate(160 56) matrix(-1 0 0 1 70.095 2.258) translate(.175 15.056)"/>
                                </g>
                                <g fill="#170E35">
                                    <path d="M26.204 31.617c1.678-5.502 2.306-10.207 1.885-14.115-.421-3.908-1.49-9.742-3.204-17.502-6.909 3.638-12.373 6.775-16.393 9.41-4.02 2.635-6.72 5.52-8.102 8.657-.377 1.129.188 2.32 1.696 3.576 2.261 1.881 7.537 6.022 18.466 7.34 2.074.25 3.959 1.128 5.652 2.634z" transform="translate(-1172 -186) translate(1164 184) translate(.717) translate(160 56) matrix(-1 0 0 1 70.095 2.258) translate(34.469)"/>
                                </g>
                                <path fill="#8F919D" d="M57.15 26.746c-.496.158-.937.48-1.23.944-.347.551-.45 1.21-.441 1.858-.022.315.006.637.083.951.126.513-1.817 5.423-1.302 5.347.24-.036 1.573 2.072 4.545 1.209 2.972-.864 3.494-4.166 3.593-4.971.191-1.547-.003-3.22-1.044-4.459-.973-1.156-2.857-1.711-4.203-.879z" transform="translate(-1172 -186) translate(1164 184) translate(.717) translate(160 56) matrix(-1 0 0 1 70.095 2.258)"/>
                            </g>
                        </g>
                        <g>
                            <g opacity=".5">
                                <g fill="#8F919D">
                                    <path d="M56.695 13.278c-.412-1.568-1.04-3.085-1.809-4.51-.748-1.387-1.63-2.755-2.755-3.87-.541-.536-1.141-.993-1.785-1.373-1.34-1.137-2.926-1.981-4.577-2.571-2.363-.846-4.95-1.186-7.432-.729-1.361.25-1.958-.978-3.842 3.35-1.884 4.33-.565 5.835-.565 8.281 0 2.447-.942 2.823-2.261 2.823-.866 0-11.104.365-30.716 1.094-.524.02-.94.451-.94.976 0 .53.412.967.94.999 21.222 1.3 31.838 1.972 31.846 2.013 1.13 5.645 4.9 9.033 7.537 9.033 2.638 0 6.28-1.384 8.103-1.882.907 1.802 1.884 3.576 2.826 5.458.942 1.882 7.726.188 7.16-2.07-.565-2.259-1.585-7.67-1.696-9.222 2.431-.12 2.18-.646 3.204-3.011 1.284-2.968 1.547-4.607-1.729-4.915-.522-.048-1.028-.001-1.51.126z" transform="translate(-1172 -186) translate(1164 184) translate(.717) translate(240 56) matrix(-1 0 0 1 70.095 2.258) translate(.175 15.056)"/>
                                </g>
                                <g fill="#170E35">
                                    <path d="M26.204 31.617c1.678-5.502 2.306-10.207 1.885-14.115-.421-3.908-1.49-9.742-3.204-17.502-6.909 3.638-12.373 6.775-16.393 9.41-4.02 2.635-6.72 5.52-8.102 8.657-.377 1.129.188 2.32 1.696 3.576 2.261 1.881 7.537 6.022 18.466 7.34 2.074.25 3.959 1.128 5.652 2.634z" transform="translate(-1172 -186) translate(1164 184) translate(.717) translate(240 56) matrix(-1 0 0 1 70.095 2.258) translate(34.469)"/>
                                </g>
                                <path fill="#8F919D" d="M57.15 26.746c-.496.158-.937.48-1.23.944-.347.551-.45 1.21-.441 1.858-.022.315.006.637.083.951.126.513-1.817 5.423-1.302 5.347.24-.036 1.573 2.072 4.545 1.209 2.972-.864 3.494-4.166 3.593-4.971.191-1.547-.003-3.22-1.044-4.459-.973-1.156-2.857-1.711-4.203-.879z" transform="translate(-1172 -186) translate(1164 184) translate(.717) translate(240 56) matrix(-1 0 0 1 70.095 2.258)"/>
                            </g>
                        </g>
                        <g>
                            <g opacity=".5">
                                <g fill="#8F919D">
                                    <path d="M56.695 13.278c-.412-1.568-1.04-3.085-1.809-4.51-.748-1.387-1.63-2.755-2.755-3.87-.541-.536-1.141-.993-1.785-1.373-1.34-1.137-2.926-1.981-4.577-2.571-2.363-.846-4.95-1.186-7.432-.729-1.361.25-1.958-.978-3.842 3.35-1.884 4.33-.565 5.835-.565 8.281 0 2.447-.942 2.823-2.261 2.823-.866 0-11.104.365-30.716 1.094-.524.02-.94.451-.94.976 0 .53.412.967.94.999 21.222 1.3 31.838 1.972 31.846 2.013 1.13 5.645 4.9 9.033 7.537 9.033 2.638 0 6.28-1.384 8.103-1.882.907 1.802 1.884 3.576 2.826 5.458.942 1.882 7.726.188 7.16-2.07-.565-2.259-1.585-7.67-1.696-9.222 2.431-.12 2.18-.646 3.204-3.011 1.284-2.968 1.547-4.607-1.729-4.915-.522-.048-1.028-.001-1.51.126z" transform="translate(-1172 -186) translate(1164 184) translate(.717) translate(115 114) matrix(-1 0 0 1 70.095 2.258) translate(.175 15.056)"/>
                                </g>
                                <g fill="#170E35">
                                    <path d="M26.204 31.617c1.678-5.502 2.306-10.207 1.885-14.115-.421-3.908-1.49-9.742-3.204-17.502-6.909 3.638-12.373 6.775-16.393 9.41-4.02 2.635-6.72 5.52-8.102 8.657-.377 1.129.188 2.32 1.696 3.576 2.261 1.881 7.537 6.022 18.466 7.34 2.074.25 3.959 1.128 5.652 2.634z" transform="translate(-1172 -186) translate(1164 184) translate(.717) translate(115 114) matrix(-1 0 0 1 70.095 2.258) translate(34.469)"/>
                                </g>
                                <path fill="#8F919D" d="M57.15 26.746c-.496.158-.937.48-1.23.944-.347.551-.45 1.21-.441 1.858-.022.315.006.637.083.951.126.513-1.817 5.423-1.302 5.347.24-.036 1.573 2.072 4.545 1.209 2.972-.864 3.494-4.166 3.593-4.971.191-1.547-.003-3.22-1.044-4.459-.973-1.156-2.857-1.711-4.203-.879z" transform="translate(-1172 -186) translate(1164 184) translate(.717) translate(115 114) matrix(-1 0 0 1 70.095 2.258)"/>
                            </g>
                        </g>
                        <g>
                            <g opacity=".5">
                                <g fill="#8F919D">
                                    <path d="M56.695 13.278c-.412-1.568-1.04-3.085-1.809-4.51-.748-1.387-1.63-2.755-2.755-3.87-.541-.536-1.141-.993-1.785-1.373-1.34-1.137-2.926-1.981-4.577-2.571-2.363-.846-4.95-1.186-7.432-.729-1.361.25-1.958-.978-3.842 3.35-1.884 4.33-.565 5.835-.565 8.281 0 2.447-.942 2.823-2.261 2.823-.866 0-11.104.365-30.716 1.094-.524.02-.94.451-.94.976 0 .53.412.967.94.999 21.222 1.3 31.838 1.972 31.846 2.013 1.13 5.645 4.9 9.033 7.537 9.033 2.638 0 6.28-1.384 8.103-1.882.907 1.802 1.884 3.576 2.826 5.458.942 1.882 7.726.188 7.16-2.07-.565-2.259-1.585-7.67-1.696-9.222 2.431-.12 2.18-.646 3.204-3.011 1.284-2.968 1.547-4.607-1.729-4.915-.522-.048-1.028-.001-1.51.126z" transform="translate(-1172 -186) translate(1164 184) translate(.717) translate(195 114) matrix(-1 0 0 1 70.095 2.258) translate(.175 15.056)"/>
                                </g>
                                <g fill="#170E35">
                                    <path d="M26.204 31.617c1.678-5.502 2.306-10.207 1.885-14.115-.421-3.908-1.49-9.742-3.204-17.502-6.909 3.638-12.373 6.775-16.393 9.41-4.02 2.635-6.72 5.52-8.102 8.657-.377 1.129.188 2.32 1.696 3.576 2.261 1.881 7.537 6.022 18.466 7.34 2.074.25 3.959 1.128 5.652 2.634z" transform="translate(-1172 -186) translate(1164 184) translate(.717) translate(195 114) matrix(-1 0 0 1 70.095 2.258) translate(34.469)"/>
                                </g>
                                <path fill="#8F919D" d="M57.15 26.746c-.496.158-.937.48-1.23.944-.347.551-.45 1.21-.441 1.858-.022.315.006.637.083.951.126.513-1.817 5.423-1.302 5.347.24-.036 1.573 2.072 4.545 1.209 2.972-.864 3.494-4.166 3.593-4.971.191-1.547-.003-3.22-1.044-4.459-.973-1.156-2.857-1.711-4.203-.879z" transform="translate(-1172 -186) translate(1164 184) translate(.717) translate(195 114) matrix(-1 0 0 1 70.095 2.258)"/>
                            </g>
                        </g>
                        <g>
                            <g opacity=".5">
                                <g fill="#8F919D">
                                    <path d="M56.695 13.278c-.412-1.568-1.04-3.085-1.809-4.51-.748-1.387-1.63-2.755-2.755-3.87-.541-.536-1.141-.993-1.785-1.373-1.34-1.137-2.926-1.981-4.577-2.571-2.363-.846-4.95-1.186-7.432-.729-1.361.25-1.958-.978-3.842 3.35-1.884 4.33-.565 5.835-.565 8.281 0 2.447-.942 2.823-2.261 2.823-.866 0-11.104.365-30.716 1.094-.524.02-.94.451-.94.976 0 .53.412.967.94.999 21.222 1.3 31.838 1.972 31.846 2.013 1.13 5.645 4.9 9.033 7.537 9.033 2.638 0 6.28-1.384 8.103-1.882.907 1.802 1.884 3.576 2.826 5.458.942 1.882 7.726.188 7.16-2.07-.565-2.259-1.585-7.67-1.696-9.222 2.431-.12 2.18-.646 3.204-3.011 1.284-2.968 1.547-4.607-1.729-4.915-.522-.048-1.028-.001-1.51.126z" transform="translate(-1172 -186) translate(1164 184) translate(.717) translate(195 230) matrix(-1 0 0 1 70.095 2.258) translate(.175 15.056)"/>
                                </g>
                                <g fill="#170E35">
                                    <path d="M26.204 31.617c1.678-5.502 2.306-10.207 1.885-14.115-.421-3.908-1.49-9.742-3.204-17.502-6.909 3.638-12.373 6.775-16.393 9.41-4.02 2.635-6.72 5.52-8.102 8.657-.377 1.129.188 2.32 1.696 3.576 2.261 1.881 7.537 6.022 18.466 7.34 2.074.25 3.959 1.128 5.652 2.634z" transform="translate(-1172 -186) translate(1164 184) translate(.717) translate(195 230) matrix(-1 0 0 1 70.095 2.258) translate(34.469)"/>
                                </g>
                                <path fill="#8F919D" d="M57.15 26.746c-.496.158-.937.48-1.23.944-.347.551-.45 1.21-.441 1.858-.022.315.006.637.083.951.126.513-1.817 5.423-1.302 5.347.24-.036 1.573 2.072 4.545 1.209 2.972-.864 3.494-4.166 3.593-4.971.191-1.547-.003-3.22-1.044-4.459-.973-1.156-2.857-1.711-4.203-.879z" transform="translate(-1172 -186) translate(1164 184) translate(.717) translate(195 230) matrix(-1 0 0 1 70.095 2.258)"/>
                            </g>
                        </g>
                        <g>
                            <g opacity=".5">
                                <g fill="#8F919D">
                                    <path d="M56.695 13.278c-.412-1.568-1.04-3.085-1.809-4.51-.748-1.387-1.63-2.755-2.755-3.87-.541-.536-1.141-.993-1.785-1.373-1.34-1.137-2.926-1.981-4.577-2.571-2.363-.846-4.95-1.186-7.432-.729-1.361.25-1.958-.978-3.842 3.35-1.884 4.33-.565 5.835-.565 8.281 0 2.447-.942 2.823-2.261 2.823-.866 0-11.104.365-30.716 1.094-.524.02-.94.451-.94.976 0 .53.412.967.94.999 21.222 1.3 31.838 1.972 31.846 2.013 1.13 5.645 4.9 9.033 7.537 9.033 2.638 0 6.28-1.384 8.103-1.882.907 1.802 1.884 3.576 2.826 5.458.942 1.882 7.726.188 7.16-2.07-.565-2.259-1.585-7.67-1.696-9.222 2.431-.12 2.18-.646 3.204-3.011 1.284-2.968 1.547-4.607-1.729-4.915-.522-.048-1.028-.001-1.51.126z" transform="translate(-1172 -186) translate(1164 184) translate(.717) translate(195) matrix(-1 0 0 1 70.095 2.258) translate(.175 15.056)"/>
                                </g>
                                <g fill="#170E35">
                                    <path d="M26.204 31.617c1.678-5.502 2.306-10.207 1.885-14.115-.421-3.908-1.49-9.742-3.204-17.502-6.909 3.638-12.373 6.775-16.393 9.41-4.02 2.635-6.72 5.52-8.102 8.657-.377 1.129.188 2.32 1.696 3.576 2.261 1.881 7.537 6.022 18.466 7.34 2.074.25 3.959 1.128 5.652 2.634z" transform="translate(-1172 -186) translate(1164 184) translate(.717) translate(195) matrix(-1 0 0 1 70.095 2.258) translate(34.469)"/>
                                </g>
                                <path fill="#8F919D" d="M57.15 26.746c-.496.158-.937.48-1.23.944-.347.551-.45 1.21-.441 1.858-.022.315.006.637.083.951.126.513-1.817 5.423-1.302 5.347.24-.036 1.573 2.072 4.545 1.209 2.972-.864 3.494-4.166 3.593-4.971.191-1.547-.003-3.22-1.044-4.459-.973-1.156-2.857-1.711-4.203-.879z" transform="translate(-1172 -186) translate(1164 184) translate(.717) translate(195) matrix(-1 0 0 1 70.095 2.258)"/>
                            </g>
                        </g>
                    </g>
                </g>
            </g>
        </g>
    </g>
</svg>
