<?xml version="1.0" encoding="UTF-8"?>
<svg width="24px" height="24px" viewBox="0 0 24 24" version="1.1" xmlns="http://www.w3.org/2000/svg" xmlns:xlink="http://www.w3.org/1999/xlink">
    <!-- Generator: Sketch 57.1 (83088) - https://sketch.com -->
    <title>Artboard</title>
    <desc>Created with Sketch.</desc>
    <g id="Artboard" stroke="none" stroke-width="1" fill="none" fill-rule="evenodd">
        <path d="M13.6875,8.4 L20.21875,8.4 L13.6875,1.8 L13.6875,8.4 L13.6875,8.4 Z M5.375,0 L14.875,0 L22,7.2 L22,21.6 C22,22.9254834 20.9366763,24 19.625,24 L5.375,24 C4.056875,24 3,22.92 3,21.6 L3,2.4 C3,1.0745166 4.06332372,0 5.375,0 L5.375,0 Z M11.229375,12.528 C11.71625,13.608 12.33375,14.496 13.04625,15.108 L13.533125,15.492 C12.5,15.684 11.075,16.02 9.566875,16.608 L9.566875,16.608 L9.43625,16.656 L10.03,15.408 C10.564375,14.364 10.95625,13.416 11.229375,12.528 L11.229375,12.528 Z M18.924375,17.1 C19.138125,16.884 19.245,16.608 19.256875,16.308 C19.2925,16.068 19.233125,15.84 19.114375,15.648 C18.77,15.084 17.879375,14.82 16.406875,14.82 L14.875,14.904 L13.841875,14.208 C13.09375,13.584 12.416875,12.492 11.941875,11.136 L11.989375,10.968 C12.38125,9.372 12.749375,7.44 11.965625,6.648 C11.775625,6.456 11.514375,6.36 11.24125,6.36 L10.95625,6.36 C10.516875,6.36 10.125,6.828 10.018125,7.284 C9.57875,8.88 9.84,9.756 10.279375,11.208 L10.279375,11.22 C9.9825,12.276 9.6025,13.5 8.996875,14.736 L7.856875,16.896 L6.8,17.484 C5.375,18.384 4.698125,19.392 4.5675,20.028 C4.52,20.256 4.54375,20.46 4.626875,20.676 L4.6625,20.736 L5.2325,21.108 L5.755,21.24 C6.716875,21.24 7.809375,20.1 9.281875,17.556 L9.495625,17.472 C10.71875,17.076 12.23875,16.8 14.28125,16.572 C15.504375,17.184 16.94125,17.46 17.84375,17.46 C18.36625,17.46 18.7225,17.328 18.924375,17.1 L18.924375,17.1 Z M18.4375,16.248 L18.544375,16.38 C18.5325,16.5 18.496875,16.512 18.4375,16.536 L18.39,16.536 L18.164375,16.56 C17.618125,16.56 16.775,16.332 15.908125,15.948 C16.015,15.828 16.0625,15.828 16.18125,15.828 C17.84375,15.828 18.31875,16.128 18.4375,16.248 L18.4375,16.248 Z M7.548125,18 C6.77625,19.428 6.075625,20.22 5.54125,20.4 C5.600625,19.944 6.135,19.152 6.978125,18.372 L7.548125,18 L7.548125,18 Z M11.134375,9.708 C10.86125,8.628 10.849375,7.752 11.05125,7.248 L11.134375,7.104 L11.3125,7.164 C11.514375,7.452 11.538125,7.836 11.419375,8.484 L11.38375,8.676 L11.19375,9.66 L11.134375,9.708 Z" id="Shape" fill="#3F64ED" fill-rule="nonzero"></path>
    </g>
</svg>